<?xml version="1.0" encoding="utf-8"?>
<!-- Generator: Adobe Illustrator 27.0.1, SVG Export Plug-In . SVG Version: 6.00 Build 0)  -->
<svg version="1.1" id="Layer_1" xmlns="http://www.w3.org/2000/svg" xmlns:xlink="http://www.w3.org/1999/xlink" x="0px" y="0px"
	 viewBox="0 0 512 512" style="enable-background:new 0 0 512 512;" xml:space="preserve">
<style type="text/css">
	.st0{fill:#FFFFFF;}
</style>
<path class="st0" d="M487,19.2c-7.1-4.8-16.4-5.3-23.9-1L26.6,266.4c-7.5,4.3-11.9,12.4-11.4,21c0.5,8.6,5.9,16.1,13.8,19.5
	l144.2,60.5v106.7c0,8.3,4.5,15.8,11.8,19.8c3.4,1.9,7.1,2.8,10,2.8c4.2,0,8.5-1.2,12.2-3.6L311.7,426l92.7,38.9
	c2.8,1.2,5.8,1.8,8.7,1.8c3.8,0,7.7-1,11.1-2.9c6.1-3.4,10.2-9.5,11.2-16.3l60.2-406.3C497.8,32.6,494,24,487,19.2z M363.6,126
	L185.9,324.5l-98.8-41.2L363.6,126z M217,434.6v-46.9l44.1,18.5L217,434.6z M397.3,413.6l-167.8-70.5l213.4-237L397.3,413.6z"/>
</svg>
